<svg width="19" height="20" viewBox="0 0 19 20" fill="none" xmlns="http://www.w3.org/2000/svg">
<path d="M4.44408 12.4446C4.36008 12.4446 4.27523 12.4208 4.19967 12.371C3.99482 12.2357 3.93838 11.96 4.07349 11.7551L8.81438 4.57003C8.89482 4.44829 9.03012 4.37362 9.17608 4.37051C9.31916 4.36495 9.46027 4.43651 9.54579 4.5547L14.6569 11.6365C14.8006 11.8356 14.7555 12.1135 14.5567 12.2571C14.3574 12.4013 14.0794 12.3557 13.9361 12.1568L9.20186 5.59695L4.81556 12.2448C4.73004 12.3744 4.58853 12.4446 4.44408 12.4446Z" fill="#FFB74D"/>
<path d="M17.7773 18.2222H10.6662C10.1753 18.2222 9.77734 17.8243 9.77734 17.3333V12.8889C9.77734 12.398 10.1753 12 10.6662 12H17.7773C18.2683 12 18.6662 12.398 18.6662 12.8889V17.3333C18.6662 17.8243 18.2683 18.2222 17.7773 18.2222Z" fill="url(#paint0_linear)"/>
<rect x="10.666" y="12.8889" width="7.11111" height="4.44444" fill="url(#paint1_linear)"/>
<rect x="13.333" y="18.2222" width="1.77778" height="0.888889" fill="#1A237E"/>
<path d="M16.4444 20H12C12 19.5091 12.398 19.1111 12.8889 19.1111H15.5556C16.0465 19.1111 16.4444 19.5091 16.4444 20Z" fill="url(#paint2_linear)"/>
<path d="M8 18.2222H0.888889C0.397963 18.2222 0 17.8243 0 17.3333V12.8889C0 12.398 0.397963 12 0.888889 12H8C8.49093 12 8.88889 12.398 8.88889 12.8889V17.3333C8.88889 17.8243 8.49093 18.2222 8 18.2222Z" fill="url(#paint3_linear)"/>
<rect x="0.888672" y="12.8889" width="7.11111" height="4.44444" fill="url(#paint4_linear)"/>
<rect x="3.55566" y="18.2222" width="1.77778" height="0.888889" fill="#1A237E"/>
<path d="M6.6671 20H2.22266C2.22266 19.5091 2.62062 19.1111 3.11155 19.1111H5.77821C6.26914 19.1111 6.6671 19.5091 6.6671 20Z" fill="url(#paint5_linear)"/>
<path d="M9.33319 9.77774C6.63748 9.77774 4.44434 7.58459 4.44434 4.88889C4.44434 2.19319 6.63745 0 9.33319 0C12.0289 0 14.2218 2.19315 14.2218 4.88885C14.2218 5.13437 14.023 5.33322 13.7774 5.33322C13.5319 5.33322 13.3331 5.13437 13.3331 4.88885C13.3331 2.68326 11.5387 0.888704 9.33315 0.888704C7.12756 0.888704 5.333 2.68326 5.333 4.88885C5.333 7.09444 7.12756 8.889 9.33315 8.889C10.4014 8.889 11.4059 8.47285 12.1615 7.71744C12.3348 7.5437 12.6166 7.5437 12.7899 7.71744C12.9636 7.89096 12.9636 8.17226 12.7899 8.34578C11.8665 9.26937 10.6389 9.77774 9.33319 9.77774Z" fill="#F06292"/>
<circle cx="9.33301" cy="4.88889" r="4" fill="white"/>
<path d="M9.33342 5.33321C9.21968 5.33321 9.1059 5.28988 9.01927 5.20303L8.13031 4.31407C7.95656 4.14055 7.95656 3.85925 8.13031 3.68573C8.3036 3.51199 8.58534 3.51199 8.75864 3.68573L9.33342 4.26029L10.7969 2.79699C10.9702 2.62325 11.252 2.62325 11.4253 2.79699C11.599 2.97051 11.599 3.25181 11.4253 3.42533L9.6476 5.20299C9.56094 5.28988 9.44716 5.33321 9.33342 5.33321Z" fill="url(#paint6_linear)"/>
<mask id="mask0" style="mask-type:alpha" maskUnits="userSpaceOnUse" x="5" y="0" width="9" height="9">
<circle cx="9.33301" cy="4.88889" r="4" fill="white"/>
</mask>
<g mask="url(#mask0)">
<path d="M5.77756 5.33332H4.88867V4.44443H5.77756C6.02301 4.44443 6.22201 4.64343 6.22201 4.88887C6.22201 5.13432 6.02301 5.33332 5.77756 5.33332Z" fill="#B0BEC5"/>
<path d="M8.88867 8.44441V9.3333H9.77756V8.44441C9.77756 8.19897 9.57856 7.99997 9.33312 7.99997C9.08767 7.99997 8.88867 8.19893 8.88867 8.44441Z" fill="#B0BEC5"/>
<path d="M8.88867 1.33332V0.444427H9.77756V1.33332C9.77756 1.57876 9.57856 1.77776 9.33312 1.77776C9.08767 1.77776 8.88867 1.57876 8.88867 1.33332Z" fill="#B0BEC5"/>
</g>
<path d="M12.667 4.88889H14.8892L13.7781 6L12.667 4.88889Z" fill="#F06292"/>
<path fill-rule="evenodd" clip-rule="evenodd" d="M13.6206 6.15706C13.6639 6.20061 13.7208 6.22217 13.7777 6.22217C13.8345 6.22217 13.8914 6.20061 13.9348 6.15706L15.0459 5.04595C15.1095 4.98239 15.1286 4.88687 15.0941 4.80376C15.0597 4.72091 14.9788 4.66669 14.8888 4.66669H12.6666C12.5766 4.66669 12.4957 4.72087 12.4613 4.80376C12.4268 4.88687 12.4459 4.98239 12.5095 5.04595L13.6206 6.15706ZM13.7776 5.6858L13.2031 5.11102H14.3522L13.7776 5.6858Z" fill="#F06292"/>
<defs>
<linearGradient id="paint0_linear" x1="9.77734" y1="18.2222" x2="18.6662" y2="18.2222" gradientUnits="userSpaceOnUse">
<stop stop-color="#039BE5"/>
<stop offset="1" stop-color="#3949AB"/>
</linearGradient>
<linearGradient id="paint1_linear" x1="6.71046" y1="14.0278" x2="9.43352" y2="20.9988" gradientUnits="userSpaceOnUse">
<stop stop-color="#FFB74D"/>
<stop offset="1" stop-color="#F06292"/>
</linearGradient>
<linearGradient id="paint2_linear" x1="12" y1="20" x2="16.4444" y2="20" gradientUnits="userSpaceOnUse">
<stop stop-color="#039BE5"/>
<stop offset="1" stop-color="#3949AB"/>
</linearGradient>
<linearGradient id="paint3_linear" x1="-3.7037e-06" y1="18.2222" x2="8.88889" y2="18.2222" gradientUnits="userSpaceOnUse">
<stop stop-color="#039BE5"/>
<stop offset="1" stop-color="#3949AB"/>
</linearGradient>
<linearGradient id="paint4_linear" x1="-3.06689" y1="14.0278" x2="-0.343831" y2="20.9988" gradientUnits="userSpaceOnUse">
<stop stop-color="#FFB74D"/>
<stop offset="1" stop-color="#F06292"/>
</linearGradient>
<linearGradient id="paint5_linear" x1="2.22266" y1="20" x2="6.6671" y2="20" gradientUnits="userSpaceOnUse">
<stop stop-color="#039BE5"/>
<stop offset="1" stop-color="#3949AB"/>
</linearGradient>
<linearGradient id="paint6_linear" x1="7.99999" y1="5.33323" x2="11.5556" y2="5.33323" gradientUnits="userSpaceOnUse">
<stop stop-color="#1A237E"/>
<stop offset="1" stop-color="#3949AB"/>
</linearGradient>
</defs>
</svg>
