<svg width="20" height="20" viewBox="0 0 20 20" fill="none" xmlns="http://www.w3.org/2000/svg">
<rect x="0.938477" y="0.677734" width="17.1467" height="0.451128" fill="#039BE5"/>
<path d="M9.96234 1.12888H9.05989L4.37504 9.4338C4.1997 9.74463 4.18177 10.1201 4.32673 10.4462L5.90128 13.9889H13.1209L14.6955 10.4462C14.8404 10.1201 14.8225 9.74463 14.6472 9.4338L9.96234 1.12888Z" fill="url(#paint0_linear)"/>
<path d="M9.96208 9.15052V1.12891H9.05964V9.15052C8.79099 9.30688 8.6084 9.59466 8.6084 9.92785C8.6084 10.4263 9.01246 10.8303 9.51084 10.8303C10.0092 10.8303 10.4133 10.4263 10.4133 9.92785C10.4133 9.59466 10.2307 9.30688 9.96208 9.15052Z" fill="url(#paint1_linear)"/>
<path d="M13.1212 15.7939H5.90147C5.40305 15.7939 4.99902 15.3898 4.99902 14.8914C4.99902 14.393 5.40308 13.989 5.90147 13.989H13.1212C13.6196 13.989 14.0236 14.393 14.0236 14.8914C14.0236 15.3898 13.6196 15.7939 13.1212 15.7939Z" fill="url(#paint2_linear)"/>
<path d="M13.5723 19.9992H5.4502V16.6963C5.4502 16.1979 5.85426 15.7939 6.35264 15.7939H12.6699C13.1683 15.7939 13.5723 16.1979 13.5723 16.6963V19.9992Z" fill="url(#paint3_linear)"/>
<path d="M18.5363 9.47669H17.634C17.634 4.99816 13.9903 1.35447 9.51178 1.35447C5.03325 1.35447 1.3896 4.99816 1.3896 9.47669H0.487305C0.487305 4.50056 4.53565 0.452179 9.51182 0.452179C14.488 0.452179 18.5363 4.50052 18.5363 9.47669Z" fill="url(#paint4_linear)"/>
<rect x="8.83496" y="0.22644" width="1.35368" height="1.35368" fill="#F5F5F5"/>
<path fill-rule="evenodd" clip-rule="evenodd" d="M8.83494 1.80564H10.1886C10.3131 1.80564 10.4141 1.70455 10.4141 1.58003V0.226388C10.4141 0.101877 10.3131 0.000823975 10.1886 0.000823975H8.83494C8.71043 0.000823975 8.60938 0.101877 8.60938 0.226388V1.58007C8.60938 1.70458 8.71043 1.80564 8.83494 1.80564ZM9.96302 1.35447H9.0605V0.451952H9.96302V1.35447Z" fill="#039BE5"/>
<rect x="17.4082" y="8.79977" width="1.35368" height="1.35368" fill="#F5F5F5"/>
<path fill-rule="evenodd" clip-rule="evenodd" d="M17.4082 10.379H18.7618C18.8863 10.379 18.9874 10.2779 18.9874 10.1534V8.79978C18.9874 8.67527 18.8863 8.57422 18.7618 8.57422H17.4082C17.2837 8.57422 17.1826 8.67527 17.1826 8.79978V10.1534C17.1826 10.2779 17.2837 10.379 17.4082 10.379ZM18.5363 9.92783H17.6337V9.02531H18.5363V9.92783Z" fill="#039BE5"/>
<rect x="0.260742" y="8.79977" width="1.35368" height="1.35368" fill="#F5F5F5"/>
<path fill-rule="evenodd" clip-rule="evenodd" d="M0.26072 10.379H1.6144C1.73892 10.379 1.83997 10.2779 1.83993 10.1534V8.79978C1.83993 8.67527 1.73888 8.57422 1.61437 8.57422H0.26072C0.136209 8.57422 0.0351562 8.67527 0.0351562 8.79978V10.1534C0.0351562 10.2779 0.136209 10.379 0.26072 10.379ZM1.38884 9.92783H0.486322V9.02531H1.38884V9.92783Z" fill="#039BE5"/>
<circle cx="18.0851" cy="0.903268" r="0.902444" fill="#039BE5"/>
<circle cx="0.9376" cy="0.903268" r="0.902444" fill="#039BE5"/>
<defs>
<linearGradient id="paint0_linear" x1="12.7391" y1="11.9681" x2="12.7391" y2="4.10845" gradientUnits="userSpaceOnUse">
<stop stop-color="#F06292"/>
<stop offset="1" stop-color="#EC407A"/>
</linearGradient>
<linearGradient id="paint1_linear" x1="10.3165" y1="10.5757" x2="10.3165" y2="1.9152" gradientUnits="userSpaceOnUse">
<stop stop-color="#1A237E"/>
<stop offset="1" stop-color="#3949AB"/>
</linearGradient>
<linearGradient id="paint2_linear" x1="13.9307" y1="15.8167" x2="13.9307" y2="14.049" gradientUnits="userSpaceOnUse">
<stop stop-color="#1A237E"/>
<stop offset="1" stop-color="#3949AB"/>
</linearGradient>
<linearGradient id="paint3_linear" x1="5.45018" y1="19.9992" x2="13.5723" y2="19.9992" gradientUnits="userSpaceOnUse">
<stop stop-color="#039BE5"/>
<stop offset="1" stop-color="#3949AB"/>
</linearGradient>
<linearGradient id="paint4_linear" x1="0.48729" y1="9.47669" x2="18.5363" y2="9.47669" gradientUnits="userSpaceOnUse">
<stop stop-color="#FFB74D"/>
<stop offset="1" stop-color="#F06292"/>
</linearGradient>
</defs>
</svg>
