<svg width="19" height="20" viewBox="0 0 19 20" fill="none" xmlns="http://www.w3.org/2000/svg">
<path d="M15.6519 6.52174C15.6519 2.91844 12.7296 -0.00235365 9.12579 1.42319e-06C5.51401 0.0023565 2.6084 2.90997 2.6084 6.52174C2.6084 8.5079 3.49641 10.2865 4.89695 11.4826C5.38083 11.8959 5.65188 12.506 5.65188 13.1424V13.913H12.6084V13.1498C12.6084 12.5095 12.8808 11.8954 13.3674 11.4791C14.7656 10.283 15.6519 8.50598 15.6519 6.52174Z" fill="url(#paint0_linear)"/>
<path d="M12.6083 13.9131H5.65179C5.17154 13.9131 4.78223 14.3024 4.78223 14.7826C4.78223 15.2629 5.17154 15.6522 5.65179 15.6522H12.6083C13.0886 15.6522 13.4779 15.2629 13.4779 14.7826C13.4779 14.3024 13.0885 13.9131 12.6083 13.9131Z" fill="url(#paint1_linear)"/>
<path d="M10.8697 19.1304H7.39147C6.43097 19.1304 5.65234 18.3518 5.65234 17.3913V15.6522H12.6089V17.3913C12.6089 18.3518 11.8302 19.1304 10.8697 19.1304Z" fill="url(#paint2_linear)"/>
<rect x="6.52148" y="11.3044" width="5.21739" height="2.6087" fill="url(#paint3_linear)"/>
<path d="M11.7391 11.3043H6.5217C6.28159 11.3043 6.08691 11.1097 6.08691 10.8696C6.08691 10.6295 6.28159 10.4348 6.5217 10.4348H11.7391C11.9792 10.4348 12.1739 10.6295 12.1739 10.8696C12.1739 11.1097 11.9792 11.3043 11.7391 11.3043Z" fill="#F8BBD0"/>
<path d="M9.56523 2.17392H8.69566L5.53429 7.31113C5.33726 7.63135 5.31965 8.03062 5.4878 8.36689L6.52175 10.4348H11.7391L12.7731 8.36693C12.9412 8.03066 12.9236 7.63135 12.7266 7.31117L9.56523 2.17392Z" fill="#F5F5F5"/>
<path d="M9.56505 7.07711V2.17389H8.69549V7.07711C8.43668 7.22777 8.26074 7.50505 8.26074 7.8261C8.26074 8.30635 8.65005 8.69566 9.13031 8.69566C9.61056 8.69566 9.99987 8.30635 9.99987 7.8261C9.99987 7.50505 9.82389 7.22777 9.56505 7.07711Z" fill="url(#paint4_linear)"/>
<path d="M17.8258 7.39124H16.9562C16.716 7.39124 16.5215 7.19671 16.5215 6.95653C16.5215 6.71635 16.716 6.52182 16.9562 6.52182H17.8258C18.066 6.52182 18.2605 6.71635 18.2605 6.95653C18.2605 7.19671 18.066 7.39124 17.8258 7.39124Z" fill="#F06292"/>
<path d="M15.6526 2.17373C15.5413 2.17373 15.43 2.13134 15.3451 2.04638C15.1753 1.87663 15.1753 1.60123 15.3453 1.43149L15.9976 0.779423C16.1671 0.609894 16.4425 0.609676 16.6124 0.77964C16.7822 0.949387 16.7822 1.22479 16.6122 1.39453L15.9599 2.0466C15.8751 2.13134 15.7639 2.17373 15.6526 2.17373Z" fill="#F06292"/>
<path d="M16.3048 13.2608C16.1936 13.2608 16.0823 13.2184 15.9975 13.1334L15.3452 12.4812C15.1753 12.3114 15.1753 12.0362 15.3452 11.8665C15.5148 11.6965 15.7904 11.6965 15.9599 11.8665L16.6122 12.5188C16.7822 12.6885 16.7822 12.9637 16.6122 13.1334C16.5274 13.2184 16.4162 13.2608 16.3048 13.2608Z" fill="#F06292"/>
<path d="M1.30431 7.39124H0.43471C0.194529 7.39124 0 7.19671 0 6.95653C0 6.71635 0.194529 6.52182 0.43471 6.52182H1.30435C1.54453 6.52182 1.73906 6.71635 1.73906 6.95653C1.73902 7.19671 1.54449 7.39124 1.30431 7.39124Z" fill="#F06292"/>
<path d="M2.60859 2.17373C2.49732 2.17373 2.38601 2.13134 2.30127 2.0466L1.64898 1.39453C1.47902 1.22479 1.47902 0.949387 1.64877 0.77964C1.81873 0.609676 2.09413 0.609894 2.26366 0.779423L2.91594 1.43149C3.0859 1.60123 3.0859 1.87663 2.91616 2.04638C2.83116 2.13134 2.71989 2.17373 2.60859 2.17373Z" fill="#F06292"/>
<path d="M1.95628 13.2608C1.84501 13.2608 1.7337 13.2184 1.64896 13.1334C1.47899 12.9637 1.47899 12.6885 1.64896 12.5188L2.30124 11.8665C2.47077 11.6965 2.74638 11.6965 2.91591 11.8665C3.08588 12.0362 3.08588 12.3114 2.91591 12.4812L2.26363 13.1334C2.17885 13.2184 2.06754 13.2608 1.95628 13.2608Z" fill="#F06292"/>
<path d="M10.0003 20H8.26117C7.78091 20 7.3916 19.6107 7.3916 19.1304H10.8699C10.8699 19.6107 10.4805 20 10.0003 20Z" fill="url(#paint5_linear)"/>
<defs>
<linearGradient id="paint0_linear" x1="-5.11404" y1="7.73037" x2="9.74365" y2="28.8606" gradientUnits="userSpaceOnUse">
<stop stop-color="#FFB74D"/>
<stop offset="1" stop-color="#F06292"/>
</linearGradient>
<linearGradient id="paint1_linear" x1="4.72761" y1="13.9297" x2="4.72761" y2="15.6907" gradientUnits="userSpaceOnUse">
<stop stop-color="#039BE5"/>
<stop offset="1" stop-color="#3949AB"/>
</linearGradient>
<linearGradient id="paint2_linear" x1="9.91239" y1="16.2605" x2="5.38914" y2="16.2605" gradientUnits="userSpaceOnUse">
<stop stop-color="#1A237E"/>
<stop offset="1" stop-color="#3949AB"/>
</linearGradient>
<linearGradient id="paint3_linear" x1="6.52147" y1="13.913" x2="11.7389" y2="13.913" gradientUnits="userSpaceOnUse">
<stop stop-color="#F06292"/>
<stop offset="1" stop-color="#EC407A"/>
</linearGradient>
<linearGradient id="paint4_linear" x1="8.27327" y1="2.12018" x2="8.27327" y2="8.54799" gradientUnits="userSpaceOnUse">
<stop stop-color="#039BE5"/>
<stop offset="1" stop-color="#3949AB"/>
</linearGradient>
<linearGradient id="paint5_linear" x1="7.39159" y1="20" x2="10.8699" y2="20" gradientUnits="userSpaceOnUse">
<stop stop-color="#039BE5"/>
<stop offset="1" stop-color="#3949AB"/>
</linearGradient>
</defs>
</svg>
